<svg xmlns="http://www.w3.org/2000/svg" xmlns:xlink="http://www.w3.org/1999/xlink" width="500" zoomAndPan="magnify" viewBox="0 0 375 149.999998" height="200" preserveAspectRatio="xMidYMid meet" version="1.0"><defs><g/><clipPath id="930258e803"><path d="M 25 60 L 65 60 L 65 104.226562 L 25 104.226562 Z M 25 60 " clip-rule="nonzero"/></clipPath><clipPath id="34092d4f93"><path d="M 1.191406 3.628906 L 83 3.628906 L 83 67 L 1.191406 67 Z M 1.191406 3.628906 " clip-rule="nonzero"/></clipPath><clipPath id="02cfa1a8a8"><path d="M 90 56 L 115.410156 56 L 115.410156 67 L 90 67 Z M 90 56 " clip-rule="nonzero"/></clipPath><clipPath id="5024746266"><path d="M 105.664062 56.277344 L 348.835938 56.277344 L 348.835938 66.113281 L 105.664062 66.113281 Z M 105.664062 56.277344 " clip-rule="nonzero"/></clipPath><clipPath id="01c9b9c0d3"><path d="M 110.582031 56.277344 L 343.882812 56.277344 C 346.597656 56.277344 348.800781 58.480469 348.800781 61.195312 C 348.800781 63.914062 346.597656 66.113281 343.882812 66.113281 L 110.582031 66.113281 C 107.863281 66.113281 105.664062 63.914062 105.664062 61.195312 C 105.664062 58.480469 107.863281 56.277344 110.582031 56.277344 Z M 110.582031 56.277344 " clip-rule="nonzero"/></clipPath><clipPath id="19539c236e"><path d="M 0.664062 0.277344 L 243.835938 0.277344 L 243.835938 10.113281 L 0.664062 10.113281 Z M 0.664062 0.277344 " clip-rule="nonzero"/></clipPath><clipPath id="fb27c7e45a"><path d="M 5.582031 0.277344 L 238.882812 0.277344 C 241.597656 0.277344 243.800781 2.480469 243.800781 5.195312 C 243.800781 7.914062 241.597656 10.113281 238.882812 10.113281 L 5.582031 10.113281 C 2.863281 10.113281 0.664062 7.914062 0.664062 5.195312 C 0.664062 2.480469 2.863281 0.277344 5.582031 0.277344 Z M 5.582031 0.277344 " clip-rule="nonzero"/></clipPath><clipPath id="7a1fe93dd9"><rect x="0" width="244" y="0" height="11"/></clipPath><clipPath id="c9b7a5daea"><path d="M 92 74 L 356.160156 74 L 356.160156 102 L 92 102 Z M 92 74 " clip-rule="nonzero"/></clipPath><clipPath id="166cbf0e7f"><path d="M 0.160156 7 L 13 7 L 13 20 L 0.160156 20 Z M 0.160156 7 " clip-rule="nonzero"/></clipPath><clipPath id="ce4ad701e2"><rect x="0" width="265" y="0" height="28"/></clipPath><clipPath id="6f3453a7b1"><rect x="0" width="357" y="0" height="105"/></clipPath></defs><g transform="matrix(1, 0, 0, 1, 6, 22)"><g clip-path="url(#6f3453a7b1)"><g clip-path="url(#930258e803)"><path fill="#51ade5" d="M 54.070312 60.578125 L 54.070312 85.113281 C 54.070312 90.273438 49.882812 94.457031 44.722656 94.457031 C 39.5625 94.457031 35.375 90.273438 35.375 85.113281 L 35.375 70.253906 L 25.402344 70.253906 L 25.402344 85.113281 C 25.402344 95.785156 34.050781 104.433594 44.722656 104.433594 C 55.394531 104.433594 64.042969 95.785156 64.042969 85.113281 L 64.042969 60.578125 L 54.070312 60.578125 " fill-opacity="1" fill-rule="nonzero"/></g><path fill="#a7a5a6" d="M 64.042969 70.253906 L 64.042969 60.578125 L 54.070312 60.578125 L 64.042969 60.578125 L 64.042969 70.253906 " fill-opacity="1" fill-rule="nonzero"/><path fill="#356f95" d="M 54.070312 70.253906 L 64.042969 70.253906 L 64.042969 60.578125 L 54.070312 60.578125 Z M 54.070312 70.253906 " fill-opacity="1" fill-rule="nonzero"/><g clip-path="url(#34092d4f93)"><path fill="#ffffff" d="M 77.597656 56.308594 L 20.648438 56.308594 C 15.511719 56.308594 11.230469 52.222656 11.160156 47.089844 C 11.089844 41.867188 15.300781 37.613281 20.507812 37.613281 L 35.359375 37.613281 L 35.359375 22.957031 C 35.359375 17.792969 39.550781 13.609375 44.714844 13.609375 L 44.710938 13.609375 C 49.875 13.609375 54.054688 17.792969 54.054688 22.957031 L 54.054688 52.230469 L 64.082031 52.230469 L 64.082031 22.957031 C 64.082031 12.285156 55.433594 3.636719 44.765625 3.636719 L 44.695312 3.636719 C 34.046875 3.636719 25.332031 12.351562 25.332031 23.003906 L 25.332031 27.585938 L 20.507812 27.585938 C 9.835938 27.585938 1.1875 36.292969 1.1875 46.960938 C 1.1875 57.632812 9.835938 66.335938 20.507812 66.335938 L 77.597656 66.335938 C 80.363281 66.335938 82.609375 64.09375 82.609375 61.324219 C 82.609375 58.554688 80.363281 56.308594 77.597656 56.308594 " fill-opacity="1" fill-rule="nonzero"/></g><g clip-path="url(#02cfa1a8a8)"><path fill="#ffffff" d="M 90.9375 61.324219 C 90.9375 64.09375 93.183594 66.335938 95.953125 66.335938 L 110.570312 66.335938 C 113.339844 66.335938 115.585938 64.09375 115.585938 61.324219 C 115.585938 58.554688 113.339844 56.308594 110.570312 56.308594 L 95.953125 56.308594 C 93.183594 56.308594 90.9375 58.554688 90.9375 61.324219 " fill-opacity="1" fill-rule="nonzero"/></g><g clip-path="url(#5024746266)"><g clip-path="url(#01c9b9c0d3)"><g transform="matrix(1, 0, 0, 1, 105, 56)"><g clip-path="url(#7a1fe93dd9)"><g clip-path="url(#19539c236e)"><g clip-path="url(#fb27c7e45a)"><path fill="#ffffff" d="M 0.664062 0.277344 L 243.796875 0.277344 L 243.796875 10.113281 L 0.664062 10.113281 Z M 0.664062 0.277344 " fill-opacity="1" fill-rule="nonzero"/></g></g></g></g></g></g><g fill="#ffffff" fill-opacity="1"><g transform="translate(92.317901, 46.928063)"><g><path d="M 12.59375 -35.109375 L 21.609375 -9.640625 L 30.578125 -35.109375 L 40.078125 -35.109375 L 40.078125 0 L 32.828125 0 L 32.828125 -9.59375 L 33.546875 -26.171875 L 24.0625 0 L 19.09375 0 L 9.640625 -26.140625 L 10.375 -9.59375 L 10.375 0 L 3.140625 0 L 3.140625 -35.109375 Z M 12.59375 -35.109375 "/></g></g></g><g fill="#ffffff" fill-opacity="1"><g transform="translate(135.574973, 46.928063)"><g><path d="M 17.796875 0 C 17.472656 -0.625 17.238281 -1.40625 17.09375 -2.34375 C 15.40625 -0.457031 13.210938 0.484375 10.515625 0.484375 C 7.960938 0.484375 5.84375 -0.253906 4.15625 -1.734375 C 2.476562 -3.210938 1.640625 -5.078125 1.640625 -7.328125 C 1.640625 -10.097656 2.664062 -12.222656 4.71875 -13.703125 C 6.769531 -15.179688 9.734375 -15.925781 13.609375 -15.9375 L 16.8125 -15.9375 L 16.8125 -17.4375 C 16.8125 -18.644531 16.5 -19.609375 15.875 -20.328125 C 15.257812 -21.054688 14.285156 -21.421875 12.953125 -21.421875 C 11.773438 -21.421875 10.851562 -21.140625 10.1875 -20.578125 C 9.519531 -20.015625 9.1875 -19.238281 9.1875 -18.25 L 2.21875 -18.25 C 2.21875 -19.757812 2.679688 -21.15625 3.609375 -22.4375 C 4.546875 -23.726562 5.863281 -24.738281 7.5625 -25.46875 C 9.269531 -26.207031 11.1875 -26.578125 13.3125 -26.578125 C 16.53125 -26.578125 19.082031 -25.769531 20.96875 -24.15625 C 22.851562 -22.539062 23.796875 -20.269531 23.796875 -17.34375 L 23.796875 -6.03125 C 23.816406 -3.550781 24.164062 -1.675781 24.84375 -0.40625 L 24.84375 0 Z M 12.03125 -4.84375 C 13.0625 -4.84375 14.007812 -5.070312 14.875 -5.53125 C 15.75 -5.988281 16.394531 -6.601562 16.8125 -7.375 L 16.8125 -11.859375 L 14.203125 -11.859375 C 10.710938 -11.859375 8.859375 -10.65625 8.640625 -8.25 L 8.609375 -7.84375 C 8.609375 -6.96875 8.910156 -6.25 9.515625 -5.6875 C 10.128906 -5.125 10.96875 -4.84375 12.03125 -4.84375 Z M 12.03125 -4.84375 "/></g></g></g><g fill="#ffffff" fill-opacity="1"><g transform="translate(162.050038, 46.928063)"><g><path d="M 10.03125 0 L 3.03125 0 L 3.03125 -37.046875 L 10.03125 -37.046875 Z M 10.03125 0 "/></g></g></g><g fill="#ffffff" fill-opacity="1"><g transform="translate(175.142897, 46.928063)"><g><path d="M 17.796875 0 C 17.472656 -0.625 17.238281 -1.40625 17.09375 -2.34375 C 15.40625 -0.457031 13.210938 0.484375 10.515625 0.484375 C 7.960938 0.484375 5.84375 -0.253906 4.15625 -1.734375 C 2.476562 -3.210938 1.640625 -5.078125 1.640625 -7.328125 C 1.640625 -10.097656 2.664062 -12.222656 4.71875 -13.703125 C 6.769531 -15.179688 9.734375 -15.925781 13.609375 -15.9375 L 16.8125 -15.9375 L 16.8125 -17.4375 C 16.8125 -18.644531 16.5 -19.609375 15.875 -20.328125 C 15.257812 -21.054688 14.285156 -21.421875 12.953125 -21.421875 C 11.773438 -21.421875 10.851562 -21.140625 10.1875 -20.578125 C 9.519531 -20.015625 9.1875 -19.238281 9.1875 -18.25 L 2.21875 -18.25 C 2.21875 -19.757812 2.679688 -21.15625 3.609375 -22.4375 C 4.546875 -23.726562 5.863281 -24.738281 7.5625 -25.46875 C 9.269531 -26.207031 11.1875 -26.578125 13.3125 -26.578125 C 16.53125 -26.578125 19.082031 -25.769531 20.96875 -24.15625 C 22.851562 -22.539062 23.796875 -20.269531 23.796875 -17.34375 L 23.796875 -6.03125 C 23.816406 -3.550781 24.164062 -1.675781 24.84375 -0.40625 L 24.84375 0 Z M 12.03125 -4.84375 C 13.0625 -4.84375 14.007812 -5.070312 14.875 -5.53125 C 15.75 -5.988281 16.394531 -6.601562 16.8125 -7.375 L 16.8125 -11.859375 L 14.203125 -11.859375 C 10.710938 -11.859375 8.859375 -10.65625 8.640625 -8.25 L 8.609375 -7.84375 C 8.609375 -6.96875 8.910156 -6.25 9.515625 -5.6875 C 10.128906 -5.125 10.96875 -4.84375 12.03125 -4.84375 Z M 12.03125 -4.84375 "/></g></g></g><g fill="#ffffff" fill-opacity="1"><g transform="translate(201.617962, 46.928063)"><g><path d="M 3.140625 0 L 3.140625 -35.109375 L 13.9375 -35.109375 C 17.019531 -35.109375 19.78125 -34.410156 22.21875 -33.015625 C 24.65625 -31.628906 26.554688 -29.65625 27.921875 -27.09375 C 29.296875 -24.53125 29.984375 -21.617188 29.984375 -18.359375 L 29.984375 -16.734375 C 29.984375 -13.472656 29.3125 -10.570312 27.96875 -8.03125 C 26.625 -5.488281 24.726562 -3.519531 22.28125 -2.125 C 19.84375 -0.726562 17.085938 -0.0195312 14.015625 0 Z M 10.375 -29.25 L 10.375 -5.8125 L 13.859375 -5.8125 C 16.691406 -5.8125 18.851562 -6.734375 20.34375 -8.578125 C 21.84375 -10.429688 22.609375 -13.078125 22.640625 -16.515625 L 22.640625 -18.375 C 22.640625 -21.945312 21.898438 -24.648438 20.421875 -26.484375 C 18.941406 -28.328125 16.78125 -29.25 13.9375 -29.25 Z M 10.375 -29.25 "/></g></g></g><g fill="#ffffff" fill-opacity="1"><g transform="translate(233.71114, 46.928063)"><g><path d="M 14.6875 0.484375 C 10.863281 0.484375 7.75 -0.6875 5.34375 -3.03125 C 2.9375 -5.382812 1.734375 -8.515625 1.734375 -12.421875 L 1.734375 -13.09375 C 1.734375 -15.71875 2.238281 -18.0625 3.25 -20.125 C 4.269531 -22.1875 5.707031 -23.773438 7.5625 -24.890625 C 9.414062 -26.015625 11.535156 -26.578125 13.921875 -26.578125 C 17.484375 -26.578125 20.289062 -25.453125 22.34375 -23.203125 C 24.394531 -20.953125 25.421875 -17.757812 25.421875 -13.625 L 25.421875 -10.78125 L 8.796875 -10.78125 C 9.023438 -9.070312 9.707031 -7.703125 10.84375 -6.671875 C 11.976562 -5.648438 13.410156 -5.140625 15.140625 -5.140625 C 17.828125 -5.140625 19.925781 -6.113281 21.4375 -8.0625 L 24.859375 -4.21875 C 23.816406 -2.738281 22.398438 -1.582031 20.609375 -0.75 C 18.828125 0.0703125 16.851562 0.484375 14.6875 0.484375 Z M 13.890625 -20.9375 C 12.503906 -20.9375 11.378906 -20.46875 10.515625 -19.53125 C 9.660156 -18.601562 9.113281 -17.269531 8.875 -15.53125 L 18.5625 -15.53125 L 18.5625 -16.078125 C 18.53125 -17.628906 18.113281 -18.828125 17.3125 -19.671875 C 16.507812 -20.515625 15.367188 -20.9375 13.890625 -20.9375 Z M 13.890625 -20.9375 "/></g></g></g><g fill="#ffffff" fill-opacity="1"><g transform="translate(260.403213, 46.928063)"><g><path d="M 11.015625 -32.515625 L 11.015625 -26.09375 L 15.484375 -26.09375 L 15.484375 -20.984375 L 11.015625 -20.984375 L 11.015625 -7.953125 C 11.015625 -6.992188 11.195312 -6.300781 11.5625 -5.875 C 11.9375 -5.457031 12.648438 -5.25 13.703125 -5.25 C 14.472656 -5.25 15.15625 -5.304688 15.75 -5.421875 L 15.75 -0.140625 C 14.382812 0.273438 12.976562 0.484375 11.53125 0.484375 C 6.644531 0.484375 4.148438 -1.984375 4.046875 -6.921875 L 4.046875 -20.984375 L 0.234375 -20.984375 L 0.234375 -26.09375 L 4.046875 -26.09375 L 4.046875 -32.515625 Z M 11.015625 -32.515625 "/></g></g></g><g fill="#ffffff" fill-opacity="1"><g transform="translate(277.088773, 46.928063)"><g><path d="M 14.6875 0.484375 C 10.863281 0.484375 7.75 -0.6875 5.34375 -3.03125 C 2.9375 -5.382812 1.734375 -8.515625 1.734375 -12.421875 L 1.734375 -13.09375 C 1.734375 -15.71875 2.238281 -18.0625 3.25 -20.125 C 4.269531 -22.1875 5.707031 -23.773438 7.5625 -24.890625 C 9.414062 -26.015625 11.535156 -26.578125 13.921875 -26.578125 C 17.484375 -26.578125 20.289062 -25.453125 22.34375 -23.203125 C 24.394531 -20.953125 25.421875 -17.757812 25.421875 -13.625 L 25.421875 -10.78125 L 8.796875 -10.78125 C 9.023438 -9.070312 9.707031 -7.703125 10.84375 -6.671875 C 11.976562 -5.648438 13.410156 -5.140625 15.140625 -5.140625 C 17.828125 -5.140625 19.925781 -6.113281 21.4375 -8.0625 L 24.859375 -4.21875 C 23.816406 -2.738281 22.398438 -1.582031 20.609375 -0.75 C 18.828125 0.0703125 16.851562 0.484375 14.6875 0.484375 Z M 13.890625 -20.9375 C 12.503906 -20.9375 11.378906 -20.46875 10.515625 -19.53125 C 9.660156 -18.601562 9.113281 -17.269531 8.875 -15.53125 L 18.5625 -15.53125 L 18.5625 -16.078125 C 18.53125 -17.628906 18.113281 -18.828125 17.3125 -19.671875 C 16.507812 -20.515625 15.367188 -20.9375 13.890625 -20.9375 Z M 13.890625 -20.9375 "/></g></g></g><g fill="#ffffff" fill-opacity="1"><g transform="translate(303.780846, 46.928063)"><g><path d="M 13.53125 -5.140625 C 14.8125 -5.140625 15.851562 -5.492188 16.65625 -6.203125 C 17.46875 -6.910156 17.890625 -7.847656 17.921875 -9.015625 L 24.453125 -9.015625 C 24.441406 -7.242188 23.957031 -5.625 23 -4.15625 C 22.050781 -2.6875 20.753906 -1.546875 19.109375 -0.734375 C 17.460938 0.078125 15.644531 0.484375 13.65625 0.484375 C 9.925781 0.484375 6.984375 -0.695312 4.828125 -3.0625 C 2.671875 -5.4375 1.59375 -8.71875 1.59375 -12.90625 L 1.59375 -13.359375 C 1.59375 -17.378906 2.660156 -20.585938 4.796875 -22.984375 C 6.929688 -25.378906 9.867188 -26.578125 13.609375 -26.578125 C 16.867188 -26.578125 19.484375 -25.644531 21.453125 -23.78125 C 23.421875 -21.925781 24.421875 -19.457031 24.453125 -16.375 L 17.921875 -16.375 C 17.890625 -17.726562 17.46875 -18.828125 16.65625 -19.671875 C 15.851562 -20.515625 14.796875 -20.9375 13.484375 -20.9375 C 11.859375 -20.9375 10.628906 -20.34375 9.796875 -19.15625 C 8.972656 -17.976562 8.5625 -16.0625 8.5625 -13.40625 L 8.5625 -12.6875 C 8.5625 -10 8.96875 -8.066406 9.78125 -6.890625 C 10.601562 -5.722656 11.851562 -5.140625 13.53125 -5.140625 Z M 13.53125 -5.140625 "/></g></g></g><g fill="#ffffff" fill-opacity="1"><g transform="translate(329.532547, 46.928063)"><g><path d="M 11.015625 -32.515625 L 11.015625 -26.09375 L 15.484375 -26.09375 L 15.484375 -20.984375 L 11.015625 -20.984375 L 11.015625 -7.953125 C 11.015625 -6.992188 11.195312 -6.300781 11.5625 -5.875 C 11.9375 -5.457031 12.648438 -5.25 13.703125 -5.25 C 14.472656 -5.25 15.15625 -5.304688 15.75 -5.421875 L 15.75 -0.140625 C 14.382812 0.273438 12.976562 0.484375 11.53125 0.484375 C 6.644531 0.484375 4.148438 -1.984375 4.046875 -6.921875 L 4.046875 -20.984375 L 0.234375 -20.984375 L 0.234375 -26.09375 L 4.046875 -26.09375 L 4.046875 -32.515625 Z M 11.015625 -32.515625 "/></g></g></g><g clip-path="url(#c9b7a5daea)"><g transform="matrix(1, 0, 0, 1, 92, 74)"><g clip-path="url(#ce4ad701e2)"><g clip-path="url(#166cbf0e7f)"><g fill="#51aee5" fill-opacity="1"><g transform="translate(0.317908, 19.603426)"><g><path d="M 0.296875 0 L 5.359375 -12.3125 L 6.796875 -12.3125 L 11.859375 0 L 10.234375 0 L 9.078125 -2.796875 L 3.078125 -2.796875 L 1.953125 0 Z M 3.671875 -4.234375 L 8.484375 -4.234375 L 6.078125 -10.140625 Z M 3.671875 -4.234375 "/></g></g></g></g><g fill="#51aee5" fill-opacity="1"><g transform="translate(14.540522, 19.603426)"><g><path d="M 1.796875 0 L 1.796875 -12.3125 L 3.34375 -12.3125 L 3.34375 0 Z M 1.796875 0 "/></g></g></g><g fill="#51aee5" fill-opacity="1"><g transform="translate(21.730942, 19.603426)"><g><path d="M 1.359375 -3.765625 L 1.359375 -5.15625 L 6.71875 -5.15625 L 6.71875 -3.765625 Z M 1.359375 -3.765625 "/></g></g></g><g fill="#51aee5" fill-opacity="1"><g transform="translate(31.857301, 19.603426)"><g><path d="M 1.796875 0 L 1.796875 -12.3125 L 5.953125 -12.3125 C 6.878906 -12.3125 7.6875 -12.140625 8.375 -11.796875 C 9.0625 -11.453125 9.59375 -10.972656 9.96875 -10.359375 C 10.34375 -9.742188 10.53125 -9.015625 10.53125 -8.171875 C 10.53125 -7.328125 10.34375 -6.597656 9.96875 -5.984375 C 9.59375 -5.367188 9.0625 -4.890625 8.375 -4.546875 C 7.6875 -4.210938 6.878906 -4.046875 5.953125 -4.046875 L 3.34375 -4.046875 L 3.34375 0 Z M 3.34375 -5.484375 L 5.921875 -5.484375 C 7.941406 -5.484375 8.953125 -6.375 8.953125 -8.15625 C 8.953125 -9.9375 7.941406 -10.828125 5.921875 -10.828125 L 3.34375 -10.828125 Z M 3.34375 -5.484375 "/></g></g></g><g fill="#51aee5" fill-opacity="1"><g transform="translate(45.148154, 19.603426)"><g><path d="M 7.390625 0.234375 C 6.140625 0.234375 5.035156 -0.0351562 4.078125 -0.578125 C 3.117188 -1.128906 2.367188 -1.882812 1.828125 -2.84375 C 1.285156 -3.8125 1.015625 -4.914062 1.015625 -6.15625 C 1.015625 -7.40625 1.285156 -8.507812 1.828125 -9.46875 C 2.367188 -10.425781 3.117188 -11.175781 4.078125 -11.71875 C 5.035156 -12.257812 6.140625 -12.53125 7.390625 -12.53125 C 8.640625 -12.53125 9.738281 -12.257812 10.6875 -11.71875 C 11.644531 -11.175781 12.394531 -10.425781 12.9375 -9.46875 C 13.488281 -8.507812 13.765625 -7.40625 13.765625 -6.15625 C 13.765625 -4.914062 13.488281 -3.8125 12.9375 -2.84375 C 12.394531 -1.882812 11.644531 -1.128906 10.6875 -0.578125 C 9.738281 -0.0351562 8.640625 0.234375 7.390625 0.234375 Z M 2.609375 -6.15625 C 2.609375 -5.207031 2.804688 -4.367188 3.203125 -3.640625 C 3.609375 -2.910156 4.171875 -2.335938 4.890625 -1.921875 C 5.617188 -1.515625 6.453125 -1.3125 7.390625 -1.3125 C 8.335938 -1.3125 9.164062 -1.515625 9.875 -1.921875 C 10.59375 -2.335938 11.15625 -2.910156 11.5625 -3.640625 C 11.96875 -4.367188 12.171875 -5.207031 12.171875 -6.15625 C 12.171875 -7.113281 11.96875 -7.953125 11.5625 -8.671875 C 11.15625 -9.390625 10.59375 -9.953125 9.875 -10.359375 C 9.164062 -10.773438 8.335938 -10.984375 7.390625 -10.984375 C 6.453125 -10.984375 5.617188 -10.773438 4.890625 -10.359375 C 4.171875 -9.953125 3.609375 -9.390625 3.203125 -8.671875 C 2.804688 -7.953125 2.609375 -7.113281 2.609375 -6.15625 Z M 2.609375 -6.15625 "/></g></g></g><g fill="#51aee5" fill-opacity="1"><g transform="translate(61.972685, 19.603426)"><g><path d="M 4.328125 0 L 0.328125 -12.3125 L 1.953125 -12.3125 L 3.65625 -7 L 5.09375 -2.484375 L 8.734375 -12.3125 L 10.203125 -12.3125 L 13.828125 -2.46875 L 17 -12.3125 L 18.609375 -12.3125 L 14.609375 0 L 13.171875 0 L 11.5 -4.484375 L 9.453125 -9.96875 L 5.765625 0 Z M 4.328125 0 "/></g></g></g><g fill="#51aee5" fill-opacity="1"><g transform="translate(82.98137, 19.603426)"><g><path d="M 1.796875 0 L 1.796875 -12.3125 L 9.265625 -12.3125 L 9.265625 -10.859375 L 3.34375 -10.859375 L 3.34375 -6.984375 L 8.828125 -6.984375 L 8.828125 -5.5625 L 3.34375 -5.5625 L 3.34375 -1.4375 L 9.453125 -1.4375 L 9.453125 0 Z M 1.796875 0 "/></g></g></g><g fill="#51aee5" fill-opacity="1"><g transform="translate(95.639319, 19.603426)"><g><path d="M 1.796875 0 L 1.796875 -12.3125 L 6.484375 -12.3125 C 7.335938 -12.3125 8.082031 -12.148438 8.71875 -11.828125 C 9.351562 -11.503906 9.84375 -11.046875 10.1875 -10.453125 C 10.539062 -9.867188 10.71875 -9.164062 10.71875 -8.34375 C 10.71875 -7.351562 10.457031 -6.53125 9.9375 -5.875 C 9.425781 -5.226562 8.722656 -4.796875 7.828125 -4.578125 L 10.921875 0 L 9.046875 0 L 6.046875 -4.40625 L 3.34375 -4.40625 L 3.34375 0 Z M 3.34375 -5.890625 L 6.3125 -5.890625 C 7.21875 -5.890625 7.914062 -6.101562 8.40625 -6.53125 C 8.894531 -6.957031 9.140625 -7.5625 9.140625 -8.34375 C 9.140625 -9.132812 8.894531 -9.742188 8.40625 -10.171875 C 7.914062 -10.609375 7.21875 -10.828125 6.3125 -10.828125 L 3.34375 -10.828125 Z M 3.34375 -5.890625 "/></g></g></g><g fill="#51aee5" fill-opacity="1"><g transform="translate(109.668544, 19.603426)"><g><path d="M 1.796875 0 L 1.796875 -12.3125 L 9.265625 -12.3125 L 9.265625 -10.859375 L 3.34375 -10.859375 L 3.34375 -6.984375 L 8.828125 -6.984375 L 8.828125 -5.5625 L 3.34375 -5.5625 L 3.34375 -1.4375 L 9.453125 -1.4375 L 9.453125 0 Z M 1.796875 0 "/></g></g></g><g fill="#51aee5" fill-opacity="1"><g transform="translate(122.326493, 19.603426)"><g><path d="M 1.796875 0 L 1.796875 -12.3125 L 6.046875 -12.3125 C 7.316406 -12.3125 8.421875 -12.046875 9.359375 -11.515625 C 10.304688 -10.992188 11.039062 -10.273438 11.5625 -9.359375 C 12.09375 -8.441406 12.359375 -7.375 12.359375 -6.15625 C 12.359375 -4.945312 12.09375 -3.878906 11.5625 -2.953125 C 11.039062 -2.023438 10.304688 -1.300781 9.359375 -0.78125 C 8.421875 -0.257812 7.316406 0 6.046875 0 Z M 3.34375 -1.484375 L 6.046875 -1.484375 C 6.984375 -1.484375 7.804688 -1.675781 8.515625 -2.0625 C 9.222656 -2.457031 9.773438 -3.003906 10.171875 -3.703125 C 10.578125 -4.410156 10.78125 -5.226562 10.78125 -6.15625 C 10.78125 -7.09375 10.578125 -7.910156 10.171875 -8.609375 C 9.765625 -9.304688 9.203125 -9.847656 8.484375 -10.234375 C 7.773438 -10.628906 6.941406 -10.828125 5.984375 -10.828125 L 3.34375 -10.828125 Z M 3.34375 -1.484375 "/></g></g></g><g fill="#51aee5" fill-opacity="1"><g transform="translate(137.762157, 19.603426)"><g/></g></g><g fill="#51aee5" fill-opacity="1"><g transform="translate(144.179041, 19.603426)"><g><path d="M 1.796875 0 L 1.796875 -12.3125 L 6.046875 -12.3125 C 7.316406 -12.3125 8.421875 -12.046875 9.359375 -11.515625 C 10.304688 -10.992188 11.039062 -10.273438 11.5625 -9.359375 C 12.09375 -8.441406 12.359375 -7.375 12.359375 -6.15625 C 12.359375 -4.945312 12.09375 -3.878906 11.5625 -2.953125 C 11.039062 -2.023438 10.304688 -1.300781 9.359375 -0.78125 C 8.421875 -0.257812 7.316406 0 6.046875 0 Z M 3.34375 -1.484375 L 6.046875 -1.484375 C 6.984375 -1.484375 7.804688 -1.675781 8.515625 -2.0625 C 9.222656 -2.457031 9.773438 -3.003906 10.171875 -3.703125 C 10.578125 -4.410156 10.78125 -5.226562 10.78125 -6.15625 C 10.78125 -7.09375 10.578125 -7.910156 10.171875 -8.609375 C 9.765625 -9.304688 9.203125 -9.847656 8.484375 -10.234375 C 7.773438 -10.628906 6.941406 -10.828125 5.984375 -10.828125 L 3.34375 -10.828125 Z M 3.34375 -1.484375 "/></g></g></g><g fill="#51aee5" fill-opacity="1"><g transform="translate(159.614705, 19.603426)"><g><path d="M 1.796875 0 L 1.796875 -12.3125 L 3.34375 -12.3125 L 3.34375 0 Z M 1.796875 0 "/></g></g></g><g fill="#51aee5" fill-opacity="1"><g transform="translate(166.805125, 19.603426)"><g><path d="M 0.296875 0 L 5.359375 -12.3125 L 6.796875 -12.3125 L 11.859375 0 L 10.234375 0 L 9.078125 -2.796875 L 3.078125 -2.796875 L 1.953125 0 Z M 3.671875 -4.234375 L 8.484375 -4.234375 L 6.078125 -10.140625 Z M 3.671875 -4.234375 "/></g></g></g><g fill="#51aee5" fill-opacity="1"><g transform="translate(181.027739, 19.603426)"><g><path d="M 7.28125 0.234375 C 6.375 0.234375 5.539062 0.078125 4.78125 -0.234375 C 4.019531 -0.554688 3.359375 -1 2.796875 -1.5625 C 2.234375 -2.132812 1.796875 -2.8125 1.484375 -3.59375 C 1.171875 -4.375 1.015625 -5.226562 1.015625 -6.15625 C 1.015625 -7.082031 1.164062 -7.929688 1.46875 -8.703125 C 1.78125 -9.472656 2.21875 -10.144531 2.78125 -10.71875 C 3.34375 -11.289062 4 -11.734375 4.75 -12.046875 C 5.507812 -12.367188 6.34375 -12.53125 7.25 -12.53125 C 8.1875 -12.53125 9.050781 -12.359375 9.84375 -12.015625 C 10.644531 -11.679688 11.332031 -11.207031 11.90625 -10.59375 C 12.488281 -9.988281 12.910156 -9.28125 13.171875 -8.46875 L 11.484375 -8.46875 C 11.097656 -9.269531 10.539062 -9.890625 9.8125 -10.328125 C 9.082031 -10.765625 8.242188 -10.984375 7.296875 -10.984375 C 6.378906 -10.984375 5.566406 -10.773438 4.859375 -10.359375 C 4.148438 -9.953125 3.597656 -9.382812 3.203125 -8.65625 C 2.804688 -7.9375 2.609375 -7.101562 2.609375 -6.15625 C 2.609375 -5.207031 2.804688 -4.367188 3.203125 -3.640625 C 3.609375 -2.910156 4.164062 -2.335938 4.875 -1.921875 C 5.582031 -1.515625 6.394531 -1.3125 7.3125 -1.3125 C 8.144531 -1.3125 8.882812 -1.472656 9.53125 -1.796875 C 10.175781 -2.128906 10.695312 -2.585938 11.09375 -3.171875 C 11.5 -3.753906 11.753906 -4.429688 11.859375 -5.203125 L 6.859375 -5.203125 L 6.859375 -6.6875 L 13.53125 -6.6875 C 13.5625 -5.332031 13.3125 -4.132812 12.78125 -3.09375 C 12.257812 -2.0625 11.523438 -1.25 10.578125 -0.65625 C 9.640625 -0.0625 8.539062 0.234375 7.28125 0.234375 Z M 7.28125 0.234375 "/></g></g></g><g fill="#51aee5" fill-opacity="1"><g transform="translate(197.588553, 19.603426)"><g><path d="M 1.796875 0 L 1.796875 -12.3125 L 3.25 -12.3125 L 10.0625 -2.671875 L 10.0625 -12.3125 L 11.5625 -12.3125 L 11.5625 0 L 10.125 0 L 3.328125 -9.640625 L 3.328125 0 Z M 1.796875 0 "/></g></g></g><g fill="#51aee5" fill-opacity="1"><g transform="translate(213.006646, 19.603426)"><g><path d="M 7.390625 0.234375 C 6.140625 0.234375 5.035156 -0.0351562 4.078125 -0.578125 C 3.117188 -1.128906 2.367188 -1.882812 1.828125 -2.84375 C 1.285156 -3.8125 1.015625 -4.914062 1.015625 -6.15625 C 1.015625 -7.40625 1.285156 -8.507812 1.828125 -9.46875 C 2.367188 -10.425781 3.117188 -11.175781 4.078125 -11.71875 C 5.035156 -12.257812 6.140625 -12.53125 7.390625 -12.53125 C 8.640625 -12.53125 9.738281 -12.257812 10.6875 -11.71875 C 11.644531 -11.175781 12.394531 -10.425781 12.9375 -9.46875 C 13.488281 -8.507812 13.765625 -7.40625 13.765625 -6.15625 C 13.765625 -4.914062 13.488281 -3.8125 12.9375 -2.84375 C 12.394531 -1.882812 11.644531 -1.128906 10.6875 -0.578125 C 9.738281 -0.0351562 8.640625 0.234375 7.390625 0.234375 Z M 2.609375 -6.15625 C 2.609375 -5.207031 2.804688 -4.367188 3.203125 -3.640625 C 3.609375 -2.910156 4.171875 -2.335938 4.890625 -1.921875 C 5.617188 -1.515625 6.453125 -1.3125 7.390625 -1.3125 C 8.335938 -1.3125 9.164062 -1.515625 9.875 -1.921875 C 10.59375 -2.335938 11.15625 -2.910156 11.5625 -3.640625 C 11.96875 -4.367188 12.171875 -5.207031 12.171875 -6.15625 C 12.171875 -7.113281 11.96875 -7.953125 11.5625 -8.671875 C 11.15625 -9.390625 10.59375 -9.953125 9.875 -10.359375 C 9.164062 -10.773438 8.335938 -10.984375 7.390625 -10.984375 C 6.453125 -10.984375 5.617188 -10.773438 4.890625 -10.359375 C 4.171875 -9.953125 3.609375 -9.390625 3.203125 -8.671875 C 2.804688 -7.953125 2.609375 -7.113281 2.609375 -6.15625 Z M 2.609375 -6.15625 "/></g></g></g><g fill="#51aee5" fill-opacity="1"><g transform="translate(229.831177, 19.603426)"><g><path d="M 5.890625 0.234375 C 4.898438 0.234375 4.046875 0.0664062 3.328125 -0.265625 C 2.609375 -0.609375 2.050781 -1.078125 1.65625 -1.671875 C 1.269531 -2.273438 1.070312 -2.976562 1.0625 -3.78125 L 2.609375 -3.78125 C 2.628906 -3 2.941406 -2.378906 3.546875 -1.921875 C 4.148438 -1.472656 4.929688 -1.25 5.890625 -1.25 C 6.753906 -1.25 7.441406 -1.414062 7.953125 -1.75 C 8.460938 -2.09375 8.71875 -2.570312 8.71875 -3.1875 C 8.71875 -3.757812 8.472656 -4.21875 7.984375 -4.5625 C 7.492188 -4.90625 6.691406 -5.207031 5.578125 -5.46875 C 4.066406 -5.832031 2.957031 -6.296875 2.25 -6.859375 C 1.550781 -7.429688 1.203125 -8.191406 1.203125 -9.140625 C 1.203125 -10.179688 1.59375 -11.003906 2.375 -11.609375 C 3.164062 -12.222656 4.238281 -12.53125 5.59375 -12.53125 C 6.976562 -12.53125 8.070312 -12.179688 8.875 -11.484375 C 9.675781 -10.796875 10.082031 -9.859375 10.09375 -8.671875 L 8.5625 -8.671875 C 8.550781 -9.410156 8.273438 -9.992188 7.734375 -10.421875 C 7.203125 -10.847656 6.488281 -11.0625 5.59375 -11.0625 C 4.707031 -11.0625 4.015625 -10.882812 3.515625 -10.53125 C 3.023438 -10.1875 2.78125 -9.722656 2.78125 -9.140625 C 2.78125 -8.640625 3.007812 -8.210938 3.46875 -7.859375 C 3.9375 -7.515625 4.765625 -7.195312 5.953125 -6.90625 C 7.523438 -6.519531 8.644531 -6.035156 9.3125 -5.453125 C 9.976562 -4.878906 10.3125 -4.140625 10.3125 -3.234375 C 10.3125 -2.171875 9.910156 -1.328125 9.109375 -0.703125 C 8.304688 -0.078125 7.234375 0.234375 5.890625 0.234375 Z M 5.890625 0.234375 "/></g></g></g><g fill="#51aee5" fill-opacity="1"><g transform="translate(243.262663, 19.603426)"><g><path d="M 1.796875 0 L 1.796875 -12.3125 L 3.34375 -12.3125 L 3.34375 0 Z M 1.796875 0 "/></g></g></g><g fill="#51aee5" fill-opacity="1"><g transform="translate(250.453083, 19.603426)"><g><path d="M 5.890625 0.234375 C 4.898438 0.234375 4.046875 0.0664062 3.328125 -0.265625 C 2.609375 -0.609375 2.050781 -1.078125 1.65625 -1.671875 C 1.269531 -2.273438 1.070312 -2.976562 1.0625 -3.78125 L 2.609375 -3.78125 C 2.628906 -3 2.941406 -2.378906 3.546875 -1.921875 C 4.148438 -1.472656 4.929688 -1.25 5.890625 -1.25 C 6.753906 -1.25 7.441406 -1.414062 7.953125 -1.75 C 8.460938 -2.09375 8.71875 -2.570312 8.71875 -3.1875 C 8.71875 -3.757812 8.472656 -4.21875 7.984375 -4.5625 C 7.492188 -4.90625 6.691406 -5.207031 5.578125 -5.46875 C 4.066406 -5.832031 2.957031 -6.296875 2.25 -6.859375 C 1.550781 -7.429688 1.203125 -8.191406 1.203125 -9.140625 C 1.203125 -10.179688 1.59375 -11.003906 2.375 -11.609375 C 3.164062 -12.222656 4.238281 -12.53125 5.59375 -12.53125 C 6.976562 -12.53125 8.070312 -12.179688 8.875 -11.484375 C 9.675781 -10.796875 10.082031 -9.859375 10.09375 -8.671875 L 8.5625 -8.671875 C 8.550781 -9.410156 8.273438 -9.992188 7.734375 -10.421875 C 7.203125 -10.847656 6.488281 -11.0625 5.59375 -11.0625 C 4.707031 -11.0625 4.015625 -10.882812 3.515625 -10.53125 C 3.023438 -10.1875 2.78125 -9.722656 2.78125 -9.140625 C 2.78125 -8.640625 3.007812 -8.210938 3.46875 -7.859375 C 3.9375 -7.515625 4.765625 -7.195312 5.953125 -6.90625 C 7.523438 -6.519531 8.644531 -6.035156 9.3125 -5.453125 C 9.976562 -4.878906 10.3125 -4.140625 10.3125 -3.234375 C 10.3125 -2.171875 9.910156 -1.328125 9.109375 -0.703125 C 8.304688 -0.078125 7.234375 0.234375 5.890625 0.234375 Z M 5.890625 0.234375 "/></g></g></g></g></g></g></g></g></svg>